<svg width="300" height="300" viewBox="0 0 300 300" fill="none" xmlns="http://www.w3.org/2000/svg">
<g clip-path="url(#clip0_666_14364)">
<mask id="mask0_666_14364" style="mask-type:luminance" maskUnits="userSpaceOnUse" x="0" y="0" width="300" height="300">
<path d="M300 0H0V300H300V0Z" fill="white"/>
</mask>
<g mask="url(#mask0_666_14364)">
<path d="M209.117 123.7C194.638 115 176.164 118.6 165.878 131.6C164.38 133.5 164.979 136.2 166.976 137.4L187.548 149.7C188.846 150.5 188.846 152.4 187.548 153.1L166.577 165C164.68 166.1 164.081 168.4 164.979 170.3C180.557 201.8 168.974 240.4 138.017 257.9C107.061 275.4 68.1147 265.5 49.1413 236C47.943 234.2 45.6462 233.6 43.7489 234.6L21.6799 247.1C19.6827 248.2 19.0835 250.8 20.2818 252.7C48.4423 298.1 107.66 313.5 154.493 286.9C199.631 261.3 217.305 205.9 196.734 159.3C195.935 157.5 197.933 155.8 199.531 156.8L216.906 167.2C218.904 168.4 221.6 167.6 222.598 165.4C229.089 150.4 223.597 132.4 209.117 123.7Z" fill="black"/>
<path d="M243.269 66.2996C198.332 39.3996 140.613 51.9996 110.655 93.9996C109.557 95.5996 107.06 94.7996 107.06 92.7996V70.9996C107.06 68.5996 104.963 66.6996 102.667 66.9996C86.3892 69.1996 73.707 83.0996 73.707 100.1C73.707 117 86.2893 131 102.567 133.2C104.963 133.5 106.961 131.6 106.961 129.2V104.9C106.961 103.4 108.658 102.4 109.956 103.2L131.326 116C133.124 117.1 135.521 116.5 136.719 114.8C156.391 85.6996 195.636 76.6996 226.093 94.9996C256.651 113.3 267.236 152.1 250.959 183.3C249.96 185.2 250.559 187.5 252.456 188.6L274.226 201.7C276.123 202.9 278.72 202.2 279.818 200.2C305.382 153.2 289.504 93.9996 243.269 66.2996Z" fill="black"/>
<path d="M97.7728 199.8C99.7699 200 100.269 202.6 98.5716 203.5L79.8978 214.2C77.8008 215.4 77.2016 218.1 78.5997 220C88.4858 233.2 106.86 237.2 121.639 228.9C136.418 220.6 142.31 202.7 136.119 187.4C135.22 185.2 132.524 184.3 130.527 185.5L109.856 197.2C108.557 198 106.86 197 106.86 195.5V170.8C106.86 168.7 105.162 166.9 103.065 166.8C68.0145 164.8 40.2535 135.6 40.2535 100C40.2535 64.4 68.1144 35.3 103.165 33.4C105.262 33.3 106.96 31.6 106.96 29.4V4.00007C106.96 1.70007 105.062 -0.0999329 102.865 6.69961e-05C49.6403 2.10006 7.10005 46 7.00019 100C6.90033 152.2 46.8442 195.2 97.7728 199.8Z" fill="black"/>
</g>
</g>
<defs>
<clipPath id="clip0_666_14364">
<rect width="300" height="300" fill="white"/>
</clipPath>
</defs>
</svg>
